<?xml version="1.0" encoding="UTF-8"?>
<svg id="Layer_2" xmlns="http://www.w3.org/2000/svg" viewBox="0 0 433.26 226.27">
  <g id="Layer_1-2" data-name="Layer_1">
    <g>
      <path d="M54.34,78.64c-2.45,6.74-5.14,13.28-7.2,20-2.89,9.41-4.2,19.08-2.23,28.89,3.34,16.66,13.99,26.44,29.94,30.8,11.05,3.02,22.17,2.46,33.16-.52,47.89-12.96,95.77-25.96,143.65-38.95.66-.18,1.31-.39,1.91-1.01h-37.16c-.44-16.08-.88-31.93-1.31-47.78-.12-.06-.24-.12-.37-.19-.35.82-.73,1.63-1.05,2.47-5.52,14.48-11.01,28.98-16.6,43.44-.32.82-1.48,1.85-2.27,1.87-8.35.13-16.71.08-25.07.06-.23,0-.47-.13-.94-.28,2.49-6.69,4.95-13.31,7.41-19.93,11.76-31.63,23.54-63.26,35.24-94.91.69-1.86,1.5-2.61,3.57-2.58,8.34.13,16.69.05,25.46.05-4.39,11.58-8.67,22.86-12.94,34.15l.37.2c5.86-7.11,11.72-14.22,17.58-21.32,3.17-3.84,6.28-7.72,9.55-11.47.66-.76,1.88-1.46,2.84-1.47,27.29-.07,54.58-.05,81.86-.04.17,0,.35.06.96.17-.56,1.49-1.09,2.92-1.63,4.35-1.65,4.39-3.37,8.77-4.93,13.2-.53,1.51-1.31,2-2.91,1.98-7.91-.09-15.82-.09-23.73,0-.93.01-2.4.61-2.67,1.3-2.96,7.58-5.73,15.24-8.71,23.32h26.62c-1.48,4.03-2.77,7.57-4.08,11.1-1.12,2.99-2.36,5.94-3.36,8.96-.51,1.55-1.31,2-2.9,1.98-7.47-.08-14.93-.09-22.4.02-.91.01-2.34.7-2.62,1.42-3.34,8.59-6.5,17.24-9.7,25.88-.09.24-.05.52-.09,1.05h31.96c-1.09,3.14-2.05,5.94-3.16,9.15,21.36-5.79,42.34-11.52,63.35-17.15,20.97-5.62,41.85-11.62,62.92-16.87.19.42.38.84.58,1.26-1.13.74-2.17,1.65-3.39,2.18-22.75,9.92-45.53,19.8-68.3,29.67-57.59,24.95-115.16,49.95-172.79,74.81-28,12.08-56.06,24-84.18,35.79-12.52,5.25-25.36,9.67-38.88,11.63-20.76,3-39.65-.86-55.17-15.89C2.23,201.37-.63,191.07.11,179.79c1-15.26,6.66-29.11,13.62-42.48,11.05-21.22,25.22-40.29,40.6-58.66ZM283.89,3.05c-.91.83-1.22,1.07-1.49,1.37-13.09,14.38-26.2,28.75-39.24,43.17-.63.69-1.04,1.88-1.02,2.82.46,18.11.99,36.22,1.53,54.33.04,1.19.21,2.38.33,3.57.16.01.31.03.47.04,13.04-34.85,26.09-69.69,39.42-105.31Z"/>
      <path d="M132.3.21c-1.1,17.17-2.18,34.15-3.27,51.14.09.04.18.07.27.11.42-.98.87-1.95,1.25-2.94,5.66-15.09,11.36-30.17,16.92-45.3.85-2.32,1.88-3.28,4.5-3.21,7.99.21,15.99.07,24.41.07-1.03,2.88-1.94,5.51-2.91,8.11-13.43,35.83-26.86,71.66-40.35,107.47-.31.82-1.24,2.01-1.89,2.02-9.4.13-18.81.09-28.69.09,1.1-16.95,2.18-33.65,3.26-50.34-.11-.05-.23-.09-.34-.14-.56,1.39-1.16,2.77-1.68,4.17-5.46,14.6-10.94,29.2-16.3,43.83-.69,1.88-1.55,2.58-3.6,2.54-7.29-.14-14.57-.05-21.86-.06-.94,0-1.88,0-3.25,0,2.31-6.19,4.47-11.97,6.63-17.75,12.09-32.26,24.2-64.52,36.21-96.81.87-2.35,1.9-3.24,4.49-3.18,7.73.19,15.46.05,23.2.05.87,0,1.73.07,3.01.13Z"/>
      <path d="M136.06,117.75c1.46-3.99,2.77-7.62,4.13-11.24,12.92-34.48,25.87-68.96,38.72-103.47.84-2.26,1.84-3.09,4.33-3.04,8.06.19,16.13.07,24.56.07-2.55,6.84-4.96,13.37-7.41,19.89-11.9,31.74-23.83,63.48-35.66,95.25-.76,2.05-1.69,2.63-3.79,2.59-7.28-.14-14.57-.06-21.85-.06-.86,0-1.73,0-3.03,0Z"/>
    </g>
  </g>
</svg>