<svg width="46" height="46" viewBox="0 0 46 46" fill="none" xmlns="http://www.w3.org/2000/svg">
<path d="M22.7686 0.00430373C34.9818 -0.019231 45.2378 10.0576 45.46 22.1152C45.7019 35.2685 35.2028 45.2799 22.8601 45.3375C10.2546 45.395 0.424969 35.3535 0.0144178 23.4841C-0.44451 10.2537 10.5554 -0.106833 22.7686 0.00430373ZM20.3668 28.348H20.3707C20.3707 29.6986 20.3877 31.0493 20.3628 32.3999C20.3537 32.9334 20.5668 33.1622 21.0846 33.1582C21.8468 33.153 22.6104 33.1282 23.3714 33.17C24.0277 33.2066 24.2408 32.9634 24.233 32.3045C24.2042 29.6686 24.2212 27.0327 24.2291 24.3981C24.2317 23.6306 24.3376 23.5273 25.0959 23.5168C25.9458 23.5051 26.7944 23.4907 27.6442 23.5011C28.2509 23.5077 28.5333 23.1991 28.5438 22.6277C28.5582 21.8223 28.5568 21.0156 28.5385 20.2102C28.5255 19.6428 28.2496 19.3237 27.639 19.3394C27.0075 19.3564 26.376 19.342 25.7444 19.3433C24.7185 19.3442 24.2125 18.8278 24.2265 17.794C24.2408 16.7754 24.6762 16.3244 25.6974 16.2969C26.372 16.2786 27.048 16.2969 27.7227 16.2773C28.1816 16.2629 28.5398 16.0903 28.5438 15.5516C28.5503 14.6364 28.5752 13.7198 28.5229 12.8085C28.5124 12.6137 28.2025 12.2738 28.0352 12.2764C26.508 12.2973 24.9416 11.9286 23.4773 12.6908C22.5189 13.1903 21.6952 13.7878 21.18 14.8051C20.5799 15.9896 20.3654 17.2278 20.3785 18.5249C20.3837 19.1054 20.1445 19.3695 19.56 19.3512C19.0161 19.3342 18.4709 19.3564 17.927 19.3473C17.5204 19.3394 17.3072 19.5368 17.3033 19.9304C17.2942 20.9319 17.2955 21.9335 17.3046 22.9337C17.3085 23.3351 17.5347 23.5142 17.9361 23.5064C18.4369 23.4972 18.9377 23.5025 19.4384 23.5103C20.2099 23.5221 20.3602 23.6646 20.3641 24.4295C20.372 25.7369 20.3668 27.0431 20.3668 28.3506V28.348Z" fill="black"/>
</svg>
