<svg width="47" height="46" viewBox="0 0 47 46" fill="none" xmlns="http://www.w3.org/2000/svg">
<path d="M23.56 0.00271688C35.6869 -0.0090505 46.6973 10.2717 46.1429 23.6538C45.6578 35.3715 35.9693 45.4392 23.1991 45.3346C10.88 45.2352 0.465841 35.1806 0.702496 22.1332C0.922153 10.0259 11.2225 -0.0992671 23.56 0.00271688ZM23.3586 33.154V33.1632C24.5785 33.1632 25.7997 33.1436 27.0183 33.1697C28.1309 33.1933 29.1952 32.954 30.185 32.5016C32.4574 31.4622 33.6067 29.548 33.7858 27.1501C33.965 24.7665 33.9466 22.362 33.897 19.9693C33.8721 18.7848 33.6956 17.5753 33.3818 16.4339C33.1086 15.4415 32.5542 14.5328 31.6795 13.8725C30.2517 12.7965 28.5886 12.3009 26.8718 12.2826C23.7914 12.2499 20.6809 11.8655 17.6384 12.6814C16.3806 13.0187 15.2705 13.645 14.435 14.6766C13.5368 15.7854 13.121 17.119 13.0726 18.4867C12.9759 21.269 12.9811 24.0605 13.07 26.8428C13.1092 28.0483 13.4374 29.2551 14.1408 30.2906C15.4706 32.248 17.3847 33.1044 19.6977 33.1501C20.9175 33.1737 22.1374 33.154 23.3573 33.154H23.3586Z" fill="black"/>
<path d="M23.4985 14.5851C24.8047 14.5851 26.1109 14.5995 27.4171 14.5825C28.7494 14.5655 29.8137 15.1355 30.6818 16.0821C31.3434 16.8039 31.5422 17.7322 31.55 18.6801C31.5722 21.4232 31.6141 24.1676 31.5448 26.9094C31.4964 28.821 30.1105 30.7116 27.8028 30.7325C24.8217 30.7587 21.8406 30.7718 18.8596 30.7168C17.1611 30.6855 15.4222 29.0197 15.3816 27.3239C15.3097 24.2356 15.281 21.1408 15.3973 18.0551C15.4719 16.0573 17.2971 14.6884 19.1864 14.5995C20.6207 14.5315 22.0603 14.5864 23.4972 14.5864L23.4985 14.5851ZM23.4044 28.1058C26.3658 27.9227 28.8134 25.7942 28.7651 22.7203C28.718 19.7418 26.7816 17.4615 23.475 17.4184C20.3226 17.3779 18.1313 19.6843 18.1221 22.6496C18.113 25.7719 20.4298 27.8639 23.4044 28.1071V28.1058ZM29.8189 17.3766C29.8176 16.8706 29.2815 16.3123 28.7847 16.2992C28.2944 16.2861 27.706 16.8862 27.6956 17.4079C27.6864 17.8407 28.2944 18.3807 28.7729 18.365C29.2894 18.348 29.8202 17.8459 29.8189 17.3766Z" fill="black"/>
<path d="M26.5018 22.7122C26.4966 24.4067 25.1342 25.743 23.4148 25.7403C21.6733 25.7377 20.4024 24.3806 20.3396 22.6181C20.2873 21.1393 21.9334 19.5285 23.5168 19.552C25.0139 19.5742 26.6639 21.1798 26.5018 22.7122Z" fill="black"/>
</svg>
