<svg width="562" height="48" viewBox="0 0 562 48" fill="none" xmlns="http://www.w3.org/2000/svg">
<path d="M14.9062 1.375H27.625L22.6562 32.8438C21.7812 38.3229 20.2708 42.2083 18.125 44.5C16 46.7708 12.8958 47.9062 8.8125 47.9062C7.3125 47.9062 5.86458 47.7396 4.46875 47.4062C3.07292 47.0938 1.64583 46.5938 0.1875 45.9062L1.90625 34.9688C2.84375 35.5312 3.65625 35.9375 4.34375 36.1875C5.05208 36.4375 5.6875 36.5625 6.25 36.5625C7.375 36.5625 8.21875 36.2083 8.78125 35.5C9.36458 34.7708 9.82292 33.3542 10.1562 31.25L14.9062 1.375ZM40.125 31.7812C40.125 33.4896 40.3542 34.7396 40.8125 35.5312C41.2708 36.3021 42 36.6875 43 36.6875C43.8958 36.6875 44.6667 36.3333 45.3125 35.625C45.9792 34.9167 46.5729 33.7812 47.0938 32.2188C47.7812 30.1979 48.3333 27.7604 48.75 24.9062C49.1875 22.0312 49.4062 19.3021 49.4062 16.7188C49.4062 15.0104 49.1875 13.7604 48.75 12.9688C48.3125 12.1562 47.6354 11.75 46.7188 11.75C45.7396 11.75 44.9062 12.1042 44.2188 12.8125C43.5521 13.5 42.9792 14.6146 42.5 16.1562C41.8125 18.2604 41.2396 20.7604 40.7812 23.6562C40.3438 26.5521 40.125 29.2604 40.125 31.7812ZM41.6562 47.9062C37.3438 47.9062 33.875 46.3438 31.25 43.2188C28.625 40.0938 27.3125 35.9375 27.3125 30.75C27.3125 26.5208 27.8542 22.4062 28.9375 18.4062C30.0417 14.4062 31.5312 11.0521 33.4062 8.34375C35.2396 5.71875 37.3542 3.76042 39.75 2.46875C42.1667 1.17708 44.9167 0.53125 48 0.53125C52.3958 0.53125 55.8854 2.07292 58.4688 5.15625C61.0521 8.21875 62.3438 12.3958 62.3438 17.6875C62.3438 21.9375 61.8021 26.0417 60.7188 30C59.6354 33.9583 58.1458 37.3229 56.25 40.0938C54.4792 42.6979 52.375 44.6562 49.9375 45.9688C47.5208 47.2604 44.7604 47.9062 41.6562 47.9062ZM62.4375 47L69.6562 1.375H82.4062L75.1562 47H62.4375ZM81.4375 47L88.7188 1.375H100.5L104.594 25.875L108.875 1.375H119.562L112.406 47H100.688L96.3438 23.375L92.3125 47H81.4375ZM152.469 47H139.656L145.031 12.9375H137.438L139.281 1.375H167.25L165.406 12.9375H157.844L152.469 47ZM164.219 47L171.469 1.375H184.188L181.562 17.875H186.812L189.375 1.375H202.125L194.875 47H182.156L184.969 29.1562H179.781L176.969 47H164.219ZM200.156 47L207.406 1.375H230L228.25 12.4375H218.406L217.438 18.25H226.344L224.688 28.9375H215.781L214.75 35.2188H224.625L222.75 47H200.156Z" fill="black"/>
<path d="M272.219 13.0938C271.469 12.6979 270.76 12.4167 270.094 12.25C269.427 12.0833 268.75 12 268.062 12C265.083 12 262.688 13.4271 260.875 16.2812C259.062 19.1146 258.156 22.8854 258.156 27.5938C258.156 30.6146 258.698 32.8542 259.781 34.3125C260.885 35.7708 262.562 36.5 264.812 36.5C265.354 36.5 265.938 36.4479 266.562 36.3438C267.208 36.2188 267.885 36.0417 268.594 35.8125L266.656 46.8125C265.781 47.1667 264.833 47.4271 263.812 47.5938C262.792 47.7604 261.625 47.8438 260.312 47.8438C255.167 47.8438 251.229 46.3438 248.5 43.3438C245.792 40.3438 244.438 35.9896 244.438 30.2812C244.438 21.3438 246.5 14.1562 250.625 8.71875C254.75 3.26042 260.219 0.53125 267.031 0.53125C268.281 0.53125 269.5 0.645833 270.688 0.875C271.875 1.08333 273.052 1.39583 274.219 1.8125L272.219 13.0938ZM285.062 31.7812C285.062 33.4896 285.292 34.7396 285.75 35.5312C286.208 36.3021 286.938 36.6875 287.938 36.6875C288.833 36.6875 289.604 36.3333 290.25 35.625C290.917 34.9167 291.51 33.7812 292.031 32.2188C292.719 30.1979 293.271 27.7604 293.688 24.9062C294.125 22.0312 294.344 19.3021 294.344 16.7188C294.344 15.0104 294.125 13.7604 293.688 12.9688C293.25 12.1562 292.573 11.75 291.656 11.75C290.677 11.75 289.844 12.1042 289.156 12.8125C288.49 13.5 287.917 14.6146 287.438 16.1562C286.75 18.2604 286.177 20.7604 285.719 23.6562C285.281 26.5521 285.062 29.2604 285.062 31.7812ZM286.594 47.9062C282.281 47.9062 278.812 46.3438 276.188 43.2188C273.562 40.0938 272.25 35.9375 272.25 30.75C272.25 26.5208 272.792 22.4062 273.875 18.4062C274.979 14.4062 276.469 11.0521 278.344 8.34375C280.177 5.71875 282.292 3.76042 284.688 2.46875C287.104 1.17708 289.854 0.53125 292.938 0.53125C297.333 0.53125 300.823 2.07292 303.406 5.15625C305.99 8.21875 307.281 12.3958 307.281 17.6875C307.281 21.9375 306.74 26.0417 305.656 30C304.573 33.9583 303.083 37.3229 301.188 40.0938C299.417 42.6979 297.312 44.6562 294.875 45.9688C292.458 47.2604 289.698 47.9062 286.594 47.9062ZM323.094 13.1562L316.656 47H305.688L316.188 1.375H331.094L331.219 25.4375L338.969 1.375H353.812L349.906 47H338.906L343.062 13.2188L332.25 47H323.625L323.094 13.1562ZM370.094 13.1562L363.656 47H352.688L363.188 1.375H378.094L378.219 25.4375L385.969 1.375H400.812L396.906 47H385.906L390.062 13.2188L379.25 47H370.625L370.094 13.1562ZM403.219 30.6875L407.812 1.375H420.625L415.75 31.9062C415.708 32.1562 415.677 32.3854 415.656 32.5938C415.635 32.8021 415.625 33.0417 415.625 33.3125C415.625 34.0833 415.844 34.6979 416.281 35.1562C416.74 35.5938 417.354 35.8125 418.125 35.8125C419.125 35.8125 419.906 35.4896 420.469 34.8438C421.052 34.1979 421.448 33.2188 421.656 31.9062L426.5 1.375H439.25L434.594 30.6562L434.5 31.125C433.604 36.6667 432.24 40.5312 430.406 42.7188C428.948 44.4688 427.094 45.7812 424.844 46.6562C422.615 47.5312 419.969 47.9688 416.906 47.9688C412.115 47.9688 408.562 46.9688 406.25 44.9688C403.938 42.9479 402.781 39.875 402.781 35.75C402.781 35.0833 402.812 34.3542 402.875 33.5625C402.938 32.7708 403.052 31.8125 403.219 30.6875ZM437.562 47L444.844 1.375H456.625L460.719 25.875L465 1.375H475.688L468.531 47H456.812L452.469 23.375L448.438 47H437.562ZM474.938 47L482.156 1.375H494.906L487.656 47H474.938ZM511.719 47H498.906L504.281 12.9375H496.688L498.531 1.375H526.5L524.656 12.9375H517.094L511.719 47ZM527.375 1.375H540.812L542.094 15.375L547.719 1.375H561.188L546.312 28.6875L543.438 47H530.719L533.656 28.6875L527.375 1.375Z" fill="#90CB75"/>
</svg>
