<svg width="569" height="53" viewBox="0 0 569 53" fill="none" xmlns="http://www.w3.org/2000/svg">
<path d="M2.86328 35.6533C4.41276 36.9521 6.04199 37.9548 7.75098 38.6611C9.45996 39.3675 11.1006 39.7207 12.6729 39.7207C14.0628 39.7207 15.168 39.3447 15.9883 38.5928C16.8086 37.818 17.2188 36.7699 17.2188 35.4482C17.2188 34.3089 16.877 33.181 16.1934 32.0645C15.5098 30.9251 14.1882 29.4212 12.2285 27.5527C9.85872 25.2513 8.22949 23.2233 7.34082 21.4688C6.45215 19.7142 6.00781 17.7773 6.00781 15.6582C6.00781 10.8958 7.51172 7.11328 10.5195 4.31055C13.5501 1.50781 17.6517 0.106445 22.8242 0.106445C24.9206 0.106445 26.9144 0.345703 28.8057 0.824219C30.6969 1.27995 32.6224 1.99772 34.582 2.97754L32.5996 15.1455C31.0957 14.0973 29.626 13.2998 28.1904 12.7529C26.7777 12.2061 25.4219 11.9326 24.123 11.9326C22.9609 11.9326 22.0381 12.2402 21.3545 12.8555C20.6937 13.4479 20.3633 14.2682 20.3633 15.3164C20.3633 16.7292 21.6507 18.7116 24.2256 21.2637C24.5446 21.5827 24.7952 21.8333 24.9775 22.0156C27.5752 24.5677 29.2842 26.7552 30.1045 28.5781C30.9248 30.401 31.335 32.5088 31.335 34.9014C31.335 40.2334 29.6829 44.4375 26.3789 47.5137C23.0977 50.5898 18.5973 52.1279 12.8779 52.1279C10.4398 52.1279 8.12695 51.8317 5.93945 51.2393C3.77474 50.6696 1.95182 49.8721 0.470703 48.8467L2.86328 35.6533ZM64.4893 13.915C63.6689 13.4821 62.8942 13.1745 62.165 12.9922C61.4359 12.8099 60.6953 12.7188 59.9434 12.7188C56.6849 12.7188 54.0645 14.2796 52.082 17.4014C50.0996 20.5003 49.1084 24.6247 49.1084 29.7744C49.1084 33.0785 49.7008 35.528 50.8857 37.123C52.0934 38.7181 53.9277 39.5156 56.3887 39.5156C56.9811 39.5156 57.6191 39.4587 58.3027 39.3447C59.0091 39.208 59.7497 39.0143 60.5244 38.7637L58.4053 50.7949C57.4482 51.1823 56.4115 51.4671 55.2949 51.6494C54.1784 51.8317 52.9023 51.9229 51.4668 51.9229C45.8385 51.9229 41.5319 50.2822 38.5469 47.001C35.5846 43.7197 34.1035 38.9574 34.1035 32.7139C34.1035 22.9385 36.3594 15.0771 40.8711 9.12988C45.3828 3.15983 51.3643 0.174805 58.8154 0.174805C60.1826 0.174805 61.5156 0.30013 62.8145 0.550781C64.1133 0.778646 65.4007 1.12044 66.6768 1.57617L64.4893 13.915ZM81.1348 23.3486H81.8867C84.0059 23.3486 85.6351 22.6878 86.7744 21.3662C87.9137 20.0218 88.4834 18.0964 88.4834 15.5898C88.4834 14.1543 88.1188 13.0947 87.3896 12.4111C86.6605 11.7275 85.5326 11.3857 84.0059 11.3857C83.9147 11.3857 83.7552 11.3971 83.5273 11.4199C83.3223 11.4427 83.1514 11.4541 83.0146 11.4541L81.1348 23.3486ZM62.7803 51L70.71 1.09766H82.4678C89.8506 1.09766 94.932 2.06608 97.7119 4.00293C100.515 5.93978 101.916 9.24382 101.916 13.915C101.916 17.9938 101.027 21.3434 99.25 23.9639C97.4954 26.5843 94.9548 28.3161 91.6279 29.1592L97.7803 51H83.0146L79.8701 30.834L76.7256 51H62.7803ZM116.271 34.3545C116.271 36.223 116.522 37.5902 117.023 38.4561C117.525 39.2992 118.322 39.7207 119.416 39.7207C120.396 39.7207 121.239 39.3333 121.945 38.5586C122.674 37.7839 123.324 36.542 123.894 34.833C124.646 32.6227 125.249 29.9567 125.705 26.835C126.184 23.6904 126.423 20.7054 126.423 17.8799C126.423 16.0114 126.184 14.6442 125.705 13.7783C125.227 12.8896 124.486 12.4453 123.483 12.4453C122.412 12.4453 121.501 12.8327 120.749 13.6074C120.02 14.3594 119.393 15.5785 118.869 17.2646C118.117 19.5661 117.491 22.3005 116.989 25.4678C116.511 28.6351 116.271 31.5973 116.271 34.3545ZM117.946 51.9912C113.229 51.9912 109.436 50.2822 106.564 46.8643C103.693 43.4463 102.258 38.9004 102.258 33.2266C102.258 28.6009 102.85 24.1006 104.035 19.7256C105.243 15.3506 106.872 11.682 108.923 8.71973C110.928 5.84863 113.241 3.70671 115.861 2.29395C118.505 0.881185 121.512 0.174805 124.885 0.174805C129.693 0.174805 133.509 1.861 136.335 5.2334C139.16 8.58301 140.573 13.1517 140.573 18.9395C140.573 23.5879 139.981 28.0768 138.796 32.4062C137.611 36.7357 135.982 40.4157 133.908 43.4463C131.971 46.2946 129.67 48.4365 127.004 49.8721C124.361 51.2848 121.341 51.9912 117.946 51.9912ZM140.163 51L148.093 1.09766H162.072L156.125 38.627H166.345L164.396 51H140.163ZM168.396 51L176.325 1.09766H190.305L184.357 38.627H194.577L192.629 51H168.396ZM233.952 51H219.938L225.817 13.7441H217.512L219.528 1.09766H250.119L248.103 13.7441H239.831L233.952 51ZM262.561 34.3545C262.561 36.223 262.811 37.5902 263.312 38.4561C263.814 39.2992 264.611 39.7207 265.705 39.7207C266.685 39.7207 267.528 39.3333 268.234 38.5586C268.964 37.7839 269.613 36.542 270.183 34.833C270.935 32.6227 271.538 29.9567 271.994 26.835C272.473 23.6904 272.712 20.7054 272.712 17.8799C272.712 16.0114 272.473 14.6442 271.994 13.7783C271.516 12.8896 270.775 12.4453 269.772 12.4453C268.701 12.4453 267.79 12.8327 267.038 13.6074C266.309 14.3594 265.682 15.5785 265.158 17.2646C264.406 19.5661 263.78 22.3005 263.278 25.4678C262.8 28.6351 262.561 31.5973 262.561 34.3545ZM264.235 51.9912C259.519 51.9912 255.725 50.2822 252.854 46.8643C249.982 43.4463 248.547 38.9004 248.547 33.2266C248.547 28.6009 249.139 24.1006 250.324 19.7256C251.532 15.3506 253.161 11.682 255.212 8.71973C257.217 5.84863 259.53 3.70671 262.15 2.29395C264.794 0.881185 267.801 0.174805 271.174 0.174805C275.982 0.174805 279.799 1.861 282.624 5.2334C285.45 8.58301 286.862 13.1517 286.862 18.9395C286.862 23.5879 286.27 28.0768 285.085 32.4062C283.9 36.7357 282.271 40.4157 280.197 43.4463C278.26 46.2946 275.959 48.4365 273.293 49.8721C270.65 51.2848 267.631 51.9912 264.235 51.9912ZM303.679 51L311.608 1.09766H322.17C328.824 1.09766 333.723 2.64714 336.867 5.74609C340.035 8.84505 341.618 13.6416 341.618 20.1357C341.618 25.1488 340.832 29.9909 339.26 34.6621C337.71 39.3105 335.705 42.888 333.244 45.3945C331.239 47.4225 328.938 48.8695 326.34 49.7354C323.742 50.5785 319.686 51 314.172 51H303.679ZM319.675 38.6953C319.766 38.7181 319.857 38.7409 319.948 38.7637C320.062 38.7637 320.222 38.7637 320.427 38.7637C321.247 38.7637 322.022 38.57 322.751 38.1826C323.503 37.7952 324.13 37.2598 324.631 36.5762C325.451 35.4824 326.237 33.2607 326.989 29.9111C327.741 26.5387 328.117 23.1891 328.117 19.8623C328.117 17.6976 327.764 16.1139 327.058 15.1113C326.374 14.0859 325.257 13.5163 323.708 13.4023L319.675 38.6953ZM342.199 51L350.095 1.09766H364.04L356.11 51H342.199ZM363.254 35.6533C364.803 36.9521 366.433 37.9548 368.142 38.6611C369.851 39.3675 371.491 39.7207 373.063 39.7207C374.453 39.7207 375.559 39.3447 376.379 38.5928C377.199 37.818 377.609 36.7699 377.609 35.4482C377.609 34.3089 377.268 33.181 376.584 32.0645C375.9 30.9251 374.579 29.4212 372.619 27.5527C370.249 25.2513 368.62 23.2233 367.731 21.4688C366.843 19.7142 366.398 17.7773 366.398 15.6582C366.398 10.8958 367.902 7.11328 370.91 4.31055C373.941 1.50781 378.042 0.106445 383.215 0.106445C385.311 0.106445 387.305 0.345703 389.196 0.824219C391.088 1.27995 393.013 1.99772 394.973 2.97754L392.99 15.1455C391.486 14.0973 390.017 13.2998 388.581 12.7529C387.168 12.2061 385.812 11.9326 384.514 11.9326C383.352 11.9326 382.429 12.2402 381.745 12.8555C381.084 13.4479 380.754 14.2682 380.754 15.3164C380.754 16.7292 382.041 18.7116 384.616 21.2637C384.935 21.5827 385.186 21.8333 385.368 22.0156C387.966 24.5677 389.675 26.7552 390.495 28.5781C391.315 30.401 391.726 32.5088 391.726 34.9014C391.726 40.2334 390.074 44.4375 386.77 47.5137C383.488 50.5898 378.988 52.1279 373.269 52.1279C370.83 52.1279 368.518 51.8317 366.33 51.2393C364.165 50.6696 362.342 49.8721 360.861 48.8467L363.254 35.6533ZM424.88 13.915C424.06 13.4821 423.285 13.1745 422.556 12.9922C421.826 12.8099 421.086 12.7188 420.334 12.7188C417.076 12.7188 414.455 14.2796 412.473 17.4014C410.49 20.5003 409.499 24.6247 409.499 29.7744C409.499 33.0785 410.091 35.528 411.276 37.123C412.484 38.7181 414.318 39.5156 416.779 39.5156C417.372 39.5156 418.01 39.4587 418.693 39.3447C419.4 39.208 420.14 39.0143 420.915 38.7637L418.796 50.7949C417.839 51.1823 416.802 51.4671 415.686 51.6494C414.569 51.8317 413.293 51.9229 411.857 51.9229C406.229 51.9229 401.923 50.2822 398.938 47.001C395.975 43.7197 394.494 38.9574 394.494 32.7139C394.494 22.9385 396.75 15.0771 401.262 9.12988C405.773 3.15983 411.755 0.174805 419.206 0.174805C420.573 0.174805 421.906 0.30013 423.205 0.550781C424.504 0.778646 425.791 1.12044 427.067 1.57617L424.88 13.915ZM438.928 34.3545C438.928 36.223 439.178 37.5902 439.68 38.4561C440.181 39.2992 440.979 39.7207 442.072 39.7207C443.052 39.7207 443.895 39.3333 444.602 38.5586C445.331 37.7839 445.98 36.542 446.55 34.833C447.302 32.6227 447.906 29.9567 448.361 26.835C448.84 23.6904 449.079 20.7054 449.079 17.8799C449.079 16.0114 448.84 14.6442 448.361 13.7783C447.883 12.8896 447.142 12.4453 446.14 12.4453C445.069 12.4453 444.157 12.8327 443.405 13.6074C442.676 14.3594 442.049 15.5785 441.525 17.2646C440.773 19.5661 440.147 22.3005 439.646 25.4678C439.167 28.6351 438.928 31.5973 438.928 34.3545ZM440.603 51.9912C435.886 51.9912 432.092 50.2822 429.221 46.8643C426.35 43.4463 424.914 38.9004 424.914 33.2266C424.914 28.6009 425.507 24.1006 426.691 19.7256C427.899 15.3506 429.528 11.682 431.579 8.71973C433.584 5.84863 435.897 3.70671 438.518 2.29395C441.161 0.881185 444.169 0.174805 447.541 0.174805C452.349 0.174805 456.166 1.861 458.991 5.2334C461.817 8.58301 463.229 13.1517 463.229 18.9395C463.229 23.5879 462.637 28.0768 461.452 32.4062C460.267 36.7357 458.638 40.4157 456.564 43.4463C454.628 46.2946 452.326 48.4365 449.66 49.8721C447.017 51.2848 443.998 51.9912 440.603 51.9912ZM467.434 1.09766H481.311L481.379 33.7051L491.735 1.09766H505.612L486.267 51H470.954L467.434 1.09766ZM500.075 51L508.005 1.09766H532.717L530.803 13.1973H520.036L518.977 19.5547H528.718L526.906 31.2441H517.165L516.037 38.1143H526.838L524.787 51H500.075ZM548.029 23.3486H548.781C550.9 23.3486 552.53 22.6878 553.669 21.3662C554.808 20.0218 555.378 18.0964 555.378 15.5898C555.378 14.1543 555.013 13.0947 554.284 12.4111C553.555 11.7275 552.427 11.3857 550.9 11.3857C550.809 11.3857 550.65 11.3971 550.422 11.4199C550.217 11.4427 550.046 11.4541 549.909 11.4541L548.029 23.3486ZM529.675 51L537.604 1.09766H549.362C556.745 1.09766 561.826 2.06608 564.606 4.00293C567.409 5.93978 568.811 9.24382 568.811 13.915C568.811 17.9938 567.922 21.3434 566.145 23.9639C564.39 26.5843 561.849 28.3161 558.522 29.1592L564.675 51H549.909L546.765 30.834L543.62 51H529.675Z" fill="black"/>
</svg>
