<svg width="458" height="92" viewBox="0 0 458 92" fill="none" xmlns="http://www.w3.org/2000/svg">
<path d="M2.875 47.9688C4.29167 49.1562 5.78125 50.0729 7.34375 50.7188C8.90625 51.3646 10.4062 51.6875 11.8438 51.6875C13.1146 51.6875 14.125 51.3438 14.875 50.6562C15.625 49.9479 16 48.9896 16 47.7812C16 46.7396 15.6875 45.7083 15.0625 44.6875C14.4375 43.6458 13.2292 42.2708 11.4375 40.5625C9.27083 38.4583 7.78125 36.6042 6.96875 35C6.15625 33.3958 5.75 31.625 5.75 29.6875C5.75 25.3333 7.125 21.875 9.875 19.3125C12.6458 16.75 16.3958 15.4688 21.125 15.4688C23.0417 15.4688 24.8646 15.6875 26.5938 16.125C28.3229 16.5417 30.0833 17.1979 31.875 18.0938L30.0625 29.2188C28.6875 28.2604 27.3438 27.5312 26.0312 27.0312C24.7396 26.5312 23.5 26.2812 22.3125 26.2812C21.25 26.2812 20.4062 26.5625 19.7812 27.125C19.1771 27.6667 18.875 28.4167 18.875 29.375C18.875 30.6667 20.0521 32.4792 22.4062 34.8125C22.6979 35.1042 22.9271 35.3333 23.0938 35.5C25.4688 37.8333 27.0312 39.8333 27.7812 41.5C28.5312 43.1667 28.9062 45.0938 28.9062 47.2812C28.9062 52.1562 27.3958 56 24.375 58.8125C21.375 61.625 17.2604 63.0312 12.0312 63.0312C9.80208 63.0312 7.6875 62.7604 5.6875 62.2188C3.70833 61.6979 2.04167 60.9688 0.6875 60.0312L2.875 47.9688ZM48.2812 62H35.4688L40.8438 27.9375H33.25L35.0938 16.375H63.0625L61.2188 27.9375H53.6562L48.2812 62ZM54.3125 62L71.4688 16.375H86.5L89.7188 62H76.8438L76.9062 55.2812H69.375L67.375 62H54.3125ZM72.0625 46.0625H77.1562L77.3125 29.1562L72.0625 46.0625ZM91.625 16.375H105.062L106.344 30.375L111.969 16.375H125.438L110.562 43.6875L107.688 62H94.9688L97.9062 43.6875L91.625 16.375ZM165.156 28.0938C164.406 27.6979 163.698 27.4167 163.031 27.25C162.365 27.0833 161.688 27 161 27C158.021 27 155.625 28.4271 153.812 31.2812C152 34.1146 151.094 37.8854 151.094 42.5938C151.094 45.6146 151.635 47.8542 152.719 49.3125C153.823 50.7708 155.5 51.5 157.75 51.5C158.292 51.5 158.875 51.4479 159.5 51.3438C160.146 51.2188 160.823 51.0417 161.531 50.8125L159.594 61.8125C158.719 62.1667 157.771 62.4271 156.75 62.5938C155.729 62.7604 154.562 62.8438 153.25 62.8438C148.104 62.8438 144.167 61.3438 141.438 58.3438C138.729 55.3438 137.375 50.9896 137.375 45.2812C137.375 36.3438 139.438 29.1562 143.562 23.7188C147.688 18.2604 153.156 15.5312 159.969 15.5312C161.219 15.5312 162.438 15.6458 163.625 15.875C164.812 16.0833 165.99 16.3958 167.156 16.8125L165.156 28.0938ZM178 46.7812C178 48.4896 178.229 49.7396 178.688 50.5312C179.146 51.3021 179.875 51.6875 180.875 51.6875C181.771 51.6875 182.542 51.3333 183.188 50.625C183.854 49.9167 184.448 48.7812 184.969 47.2188C185.656 45.1979 186.208 42.7604 186.625 39.9062C187.062 37.0312 187.281 34.3021 187.281 31.7188C187.281 30.0104 187.062 28.7604 186.625 27.9688C186.188 27.1562 185.51 26.75 184.594 26.75C183.615 26.75 182.781 27.1042 182.094 27.8125C181.427 28.5 180.854 29.6146 180.375 31.1562C179.688 33.2604 179.115 35.7604 178.656 38.6562C178.219 41.5521 178 44.2604 178 46.7812ZM179.531 62.9062C175.219 62.9062 171.75 61.3438 169.125 58.2188C166.5 55.0938 165.188 50.9375 165.188 45.75C165.188 41.5208 165.729 37.4062 166.812 33.4062C167.917 29.4062 169.406 26.0521 171.281 23.3438C173.115 20.7188 175.229 18.7604 177.625 17.4688C180.042 16.1771 182.792 15.5312 185.875 15.5312C190.271 15.5312 193.76 17.0729 196.344 20.1562C198.927 23.2188 200.219 27.3958 200.219 32.6875C200.219 36.9375 199.677 41.0417 198.594 45C197.51 48.9583 196.021 52.3229 194.125 55.0938C192.354 57.6979 190.25 59.6562 187.812 60.9688C185.396 62.2604 182.635 62.9062 179.531 62.9062ZM200.5 62L207.781 16.375H219.562L223.656 40.875L227.938 16.375H238.625L231.469 62H219.75L215.406 38.375L211.375 62H200.5ZM238.062 62L245.344 16.375H257.125L261.219 40.875L265.5 16.375H276.188L269.031 62H257.312L252.969 38.375L248.938 62H238.062ZM274.969 62L282.219 16.375H304.812L303.062 27.4375H293.219L292.25 33.25H301.156L299.5 43.9375H290.594L289.562 50.2188H299.438L297.562 62H274.969ZM331.344 28.0938C330.594 27.6979 329.885 27.4167 329.219 27.25C328.552 27.0833 327.875 27 327.188 27C324.208 27 321.812 28.4271 320 31.2812C318.188 34.1146 317.281 37.8854 317.281 42.5938C317.281 45.6146 317.823 47.8542 318.906 49.3125C320.01 50.7708 321.688 51.5 323.938 51.5C324.479 51.5 325.062 51.4479 325.688 51.3438C326.333 51.2188 327.01 51.0417 327.719 50.8125L325.781 61.8125C324.906 62.1667 323.958 62.4271 322.938 62.5938C321.917 62.7604 320.75 62.8438 319.438 62.8438C314.292 62.8438 310.354 61.3438 307.625 58.3438C304.917 55.3438 303.562 50.9896 303.562 45.2812C303.562 36.3438 305.625 29.1562 309.75 23.7188C313.875 18.2604 319.344 15.5312 326.156 15.5312C327.406 15.5312 328.625 15.6458 329.812 15.875C331 16.0833 332.177 16.3958 333.344 16.8125L331.344 28.0938ZM348.156 62H335.344L340.719 27.9375H333.125L334.969 16.375H362.938L361.094 27.9375H353.531L348.156 62ZM359.844 62L367.094 16.375H389.688L387.938 27.4375H378.094L377.125 33.25H386.031L384.375 43.9375H375.469L374.438 50.2188H384.312L382.438 62H359.844ZM386.906 62L394.156 16.375H403.812C409.896 16.375 414.375 17.7917 417.25 20.625C420.146 23.4583 421.594 27.8438 421.594 33.7812C421.594 38.3646 420.875 42.7917 419.438 47.0625C418.021 51.3125 416.188 54.5833 413.938 56.875C412.104 58.7292 410 60.0521 407.625 60.8438C405.25 61.6146 401.542 62 396.5 62H386.906ZM401.531 50.75C401.615 50.7708 401.698 50.7917 401.781 50.8125C401.885 50.8125 402.031 50.8125 402.219 50.8125C402.969 50.8125 403.677 50.6354 404.344 50.2812C405.031 49.9271 405.604 49.4375 406.062 48.8125C406.812 47.8125 407.531 45.7812 408.219 42.7188C408.906 39.6354 409.25 36.5729 409.25 33.5312C409.25 31.5521 408.927 30.1042 408.281 29.1875C407.656 28.25 406.635 27.7292 405.219 27.625L401.531 50.75Z" fill="black"/>
</svg>
