<svg width="626" height="214" viewBox="0 0 626 214" fill="none" xmlns="http://www.w3.org/2000/svg">
<path d="M3.78516 55.8838C6.22005 57.9248 8.78027 59.5003 11.4658 60.6104C14.1514 61.7204 16.7295 62.2754 19.2002 62.2754C21.3844 62.2754 23.1211 61.6846 24.4102 60.5029C25.6992 59.2855 26.3438 57.6383 26.3438 55.5615C26.3438 53.7712 25.8066 51.9987 24.7324 50.2441C23.6582 48.4538 21.5814 46.0905 18.502 43.1543C14.778 39.5378 12.2178 36.3509 10.8213 33.5938C9.4248 30.8366 8.72656 27.793 8.72656 24.4629C8.72656 16.9792 11.0898 11.0352 15.8164 6.63086C20.5788 2.22656 27.0241 0.0244141 35.1523 0.0244141C38.4466 0.0244141 41.5798 0.400391 44.5518 1.15234C47.5238 1.86849 50.5495 2.99642 53.6289 4.53613L50.5137 23.6572C48.1504 22.0101 45.8408 20.7568 43.585 19.8975C41.3649 19.0381 39.2344 18.6084 37.1934 18.6084C35.3672 18.6084 33.917 19.0918 32.8428 20.0586C31.8044 20.9896 31.2852 22.2786 31.2852 23.9258C31.2852 26.1458 33.3083 29.2611 37.3545 33.2715C37.8558 33.7728 38.2497 34.1667 38.5361 34.4531C42.6182 38.4635 45.3037 41.901 46.5928 44.7656C47.8818 47.6302 48.5264 50.9424 48.5264 54.7021C48.5264 63.0811 45.9303 69.6875 40.7383 74.5215C35.582 79.3555 28.5101 81.7725 19.5225 81.7725C15.6911 81.7725 12.0566 81.307 8.61914 80.376C5.21745 79.4808 2.35286 78.2275 0.0253906 76.6162L3.78516 55.8838ZM81.8271 80H59.8057L69.0439 21.4551H55.9922L59.1611 1.58203H107.232L104.063 21.4551H91.0654L81.8271 80ZM101.915 80L114.376 1.58203H153.209L150.201 20.5957H133.282L131.617 30.5859H146.925L144.078 48.9551H128.771L126.998 59.751H143.971L140.748 80H101.915ZM180.011 18.9307L177.271 36.2793C177.558 36.3509 177.862 36.4046 178.185 36.4404C178.507 36.4404 178.901 36.4404 179.366 36.4404C182.481 36.4404 184.809 35.5094 186.349 33.6475C187.924 31.7855 188.712 28.9746 188.712 25.2148C188.712 23.138 188.067 21.5804 186.778 20.542C185.489 19.4678 183.609 18.9307 181.139 18.9307H180.011ZM148.429 80L160.89 1.58203H179.688C190.18 1.58203 197.753 3.31868 202.408 6.79199C207.063 10.2295 209.391 15.8154 209.391 23.5498C209.391 33.3252 206.616 40.8447 201.065 46.1084C195.551 51.3363 187.656 53.9502 177.379 53.9502C177.057 53.9502 176.555 53.9323 175.875 53.8965C175.23 53.8607 174.747 53.8428 174.425 53.8428L170.343 80H148.429ZM235.172 80L247.579 1.58203H269.493L257.032 80H235.172ZM267.828 80L280.343 1.58203H300.592L307.628 43.6914L314.986 1.58203H333.355L321.056 80H300.914L293.448 39.3945L286.52 80H267.828ZM362.95 80H340.929L350.167 21.4551H337.115L340.284 1.58203H388.355L385.187 21.4551H372.188L362.95 80ZM407.906 53.8428C407.906 56.779 408.3 58.9274 409.088 60.2881C409.876 61.613 411.129 62.2754 412.848 62.2754C414.387 62.2754 415.712 61.6667 416.822 60.4492C417.968 59.2318 418.989 57.2803 419.884 54.5947C421.065 51.1214 422.014 46.932 422.73 42.0264C423.482 37.085 423.858 32.3942 423.858 27.9541C423.858 25.0179 423.482 22.8695 422.73 21.5088C421.979 20.1123 420.815 19.4141 419.239 19.4141C417.556 19.4141 416.124 20.0228 414.942 21.2402C413.797 22.4219 412.812 24.3376 411.988 26.9873C410.807 30.6038 409.822 34.9007 409.034 39.8779C408.282 44.8551 407.906 49.5101 407.906 53.8428ZM410.538 81.5576C403.126 81.5576 397.164 78.8721 392.652 73.501C388.141 68.1299 385.885 60.9863 385.885 52.0703C385.885 44.8014 386.816 37.7295 388.678 30.8545C390.576 23.9795 393.136 18.2145 396.358 13.5596C399.509 9.04785 403.144 5.68197 407.262 3.46191C411.415 1.24186 416.142 0.131836 421.441 0.131836C428.997 0.131836 434.994 2.78158 439.435 8.08105C443.875 13.3447 446.095 20.5241 446.095 29.6191C446.095 36.9238 445.164 43.9779 443.302 50.7812C441.44 57.5846 438.88 63.3675 435.621 68.1299C432.577 72.6058 428.961 75.9717 424.771 78.2275C420.618 80.4476 415.873 81.5576 410.538 81.5576ZM9.26367 133.582H31.0703L28.9756 179.988L43.3701 133.582H60.9873L60.7725 179.988L73.2871 133.582H95.0938L67.4863 212H47.3447L47.5596 162.962L32.252 212H12.1641L9.26367 133.582ZM86.4463 212L98.9072 133.582H120.768L116.256 161.941H125.279L129.684 133.582H151.598L139.137 212H117.276L122.11 181.331H113.194L108.36 212H86.4463ZM173.082 185.843C173.082 188.779 173.476 190.927 174.264 192.288C175.051 193.613 176.305 194.275 178.023 194.275C179.563 194.275 180.888 193.667 181.998 192.449C183.144 191.232 184.164 189.28 185.06 186.595C186.241 183.121 187.19 178.932 187.906 174.026C188.658 169.085 189.034 164.394 189.034 159.954C189.034 157.018 188.658 154.869 187.906 153.509C187.154 152.112 185.991 151.414 184.415 151.414C182.732 151.414 181.3 152.023 180.118 153.24C178.972 154.422 177.988 156.338 177.164 158.987C175.982 162.604 174.998 166.901 174.21 171.878C173.458 176.855 173.082 181.51 173.082 185.843ZM175.714 213.558C168.302 213.558 162.34 210.872 157.828 205.501C153.316 200.13 151.061 192.986 151.061 184.07C151.061 176.801 151.992 169.729 153.854 162.854C155.751 155.979 158.312 150.215 161.534 145.56C164.685 141.048 168.32 137.682 172.438 135.462C176.591 133.242 181.318 132.132 186.617 132.132C194.173 132.132 200.17 134.782 204.61 140.081C209.05 145.345 211.271 152.524 211.271 161.619C211.271 168.924 210.34 175.978 208.478 182.781C206.616 189.585 204.055 195.368 200.797 200.13C197.753 204.606 194.137 207.972 189.947 210.228C185.794 212.448 181.049 213.558 175.714 213.558ZM244.41 133.582H267.506L269.708 157.645L279.376 133.582H302.525L276.959 180.525L272.018 212H250.157L255.206 180.525L244.41 133.582ZM314.234 185.843C314.234 188.779 314.628 190.927 315.416 192.288C316.204 193.613 317.457 194.275 319.176 194.275C320.715 194.275 322.04 193.667 323.15 192.449C324.296 191.232 325.317 189.28 326.212 186.595C327.394 183.121 328.342 178.932 329.059 174.026C329.811 169.085 330.187 164.394 330.187 159.954C330.187 157.018 329.811 154.869 329.059 153.509C328.307 152.112 327.143 151.414 325.567 151.414C323.884 151.414 322.452 152.023 321.271 153.24C320.125 154.422 319.14 156.338 318.316 158.987C317.135 162.604 316.15 166.901 315.362 171.878C314.61 176.855 314.234 181.51 314.234 185.843ZM316.866 213.558C309.454 213.558 303.492 210.872 298.98 205.501C294.469 200.13 292.213 192.986 292.213 184.07C292.213 176.801 293.144 169.729 295.006 162.854C296.904 155.979 299.464 150.215 302.687 145.56C305.838 141.048 309.472 137.682 313.59 135.462C317.743 133.242 322.47 132.132 327.77 132.132C335.325 132.132 341.323 134.782 345.763 140.081C350.203 145.345 352.423 152.524 352.423 161.619C352.423 168.924 351.492 175.978 349.63 182.781C347.768 189.585 345.208 195.368 341.949 200.13C338.906 204.606 335.289 207.972 331.1 210.228C326.946 212.448 322.201 213.558 316.866 213.558ZM355.753 183.963L363.648 133.582H385.67L377.291 186.058C377.219 186.487 377.166 186.881 377.13 187.239C377.094 187.597 377.076 188.009 377.076 188.475C377.076 189.799 377.452 190.856 378.204 191.644C378.992 192.396 380.048 192.771 381.373 192.771C383.092 192.771 384.435 192.216 385.401 191.106C386.404 189.996 387.084 188.313 387.442 186.058L395.768 133.582H417.682L409.679 183.909L409.518 184.715C407.978 194.24 405.632 200.882 402.481 204.642C399.975 207.649 396.788 209.905 392.921 211.409C389.09 212.913 384.542 213.665 379.278 213.665C371.043 213.665 364.938 211.946 360.963 208.509C356.988 205.035 355.001 199.754 355.001 192.664C355.001 191.518 355.055 190.265 355.162 188.904C355.27 187.544 355.466 185.896 355.753 183.963ZM433.902 212L463.39 133.582H489.225L494.757 212H472.628L472.735 200.452H459.791L456.354 212H433.902ZM464.41 184.607H473.165L473.434 155.55L464.41 184.607ZM526.178 168.548H527.359C530.689 168.548 533.25 167.509 535.04 165.433C536.83 163.32 537.726 160.294 537.726 156.355C537.726 154.1 537.153 152.435 536.007 151.36C534.861 150.286 533.089 149.749 530.689 149.749C530.546 149.749 530.296 149.767 529.938 149.803C529.615 149.839 529.347 149.856 529.132 149.856L526.178 168.548ZM497.335 212L509.796 133.582H528.272C539.874 133.582 547.859 135.104 552.228 138.147C556.632 141.191 558.834 146.383 558.834 153.724C558.834 160.133 557.438 165.397 554.645 169.515C551.887 173.632 547.895 176.354 542.667 177.679L552.335 212H529.132L524.19 180.311L519.249 212H497.335ZM556.524 212L568.985 133.582H607.818L604.811 152.596H587.892L586.227 162.586H601.534L598.688 180.955H583.38L581.607 191.751H598.58L595.357 212H556.524ZM625.274 199.109C625.274 203.12 624.021 206.521 621.515 209.314C619.008 212.072 615.893 213.45 612.169 213.45C609.34 213.45 607.049 212.519 605.294 210.657C603.575 208.795 602.716 206.307 602.716 203.191C602.716 199.074 603.933 195.654 606.368 192.933C608.839 190.175 611.954 188.797 615.714 188.797C618.578 188.797 620.888 189.746 622.643 191.644C624.397 193.506 625.274 195.994 625.274 199.109Z" fill="black"/>
</svg>
