<svg width="47" height="46" viewBox="0 0 47 46" fill="none" xmlns="http://www.w3.org/2000/svg">
<path d="M23.5734 0.00523081C35.8899 -0.0287638 46.1341 10.1226 46.3067 22.205C46.4936 35.3191 36.0154 45.3227 23.6205 45.3345C11.0503 45.3462 1.0794 35.2577 0.851897 23.0732C0.610012 10.2245 11.3406 -0.064066 23.5734 0.00523081ZM13.7973 29.5989C14.7322 29.9519 15.5402 30.3755 16.3992 30.5573C18.3068 30.96 20.1922 31.3326 22.1979 30.7926C23.8218 30.3559 25.3568 29.7898 26.6983 28.834C29.9997 26.4831 31.5857 23.1543 31.8603 19.173C31.9112 18.4369 32.1858 17.9518 32.7755 17.5609C33.0265 17.3948 33.207 17.1228 33.5534 16.7581C33.1194 16.7241 32.8905 16.7241 32.6683 16.6835C32.4865 16.6508 32.3139 16.5698 32.1374 16.5096C32.2277 16.3554 32.3113 16.1958 32.4094 16.0481C32.6421 15.699 32.8827 15.3551 33.1311 14.9916C32.9402 14.8975 32.9167 14.8753 32.9023 14.8805C32.7833 14.9223 32.6709 14.9864 32.5493 15.0139C31.8093 15.1747 31.0862 15.6545 30.3109 15.0923C30.0154 14.8779 29.695 14.6857 29.3629 14.5353C26.6434 13.3115 23.2204 15.3355 23.4701 18.5977C23.5172 19.207 23.3001 19.4554 22.7 19.4306C21.0343 19.36 19.4927 18.8082 18.0963 17.9636C17.0111 17.3072 16.0593 16.4299 15.0525 15.6428C14.638 15.3185 14.2053 15.3826 14.1896 15.8677C14.1582 16.8051 14.187 17.7714 14.3883 18.6827C14.5282 19.3155 14.9976 19.8751 15.3532 20.5302C15.1375 20.5302 15.029 20.5485 14.9283 20.5275C14.1347 20.3576 13.8797 20.5838 14.1556 21.3656C14.4916 22.3201 15.0551 23.1412 15.9625 23.6773C16.3182 23.8878 16.6516 24.1375 16.9954 24.3689C16.9771 24.433 16.9575 24.4971 16.9392 24.5611C16.5444 24.6461 16.1508 24.7324 15.6932 24.8305C16.3456 26.0922 17.1693 26.9695 18.5526 27.18C18.7213 27.2062 18.9253 27.3239 19.009 27.4624C19.0534 27.537 18.9135 27.805 18.7906 27.8822C18.2807 28.2025 17.7773 28.5804 17.2151 28.7582C16.1704 29.0877 15.0852 29.2916 13.7973 29.6002V29.5989Z" fill="black"/>
</svg>
