<svg width="46" height="46" viewBox="0 0 46 46" fill="none" xmlns="http://www.w3.org/2000/svg">
<path d="M23.2667 -0.000168136C35.4708 -0.0223954 45.7137 9.94327 45.9948 22.0741C46.2968 35.1268 35.7938 45.2925 23.4472 45.3369C10.7567 45.3814 1.05647 35.4628 0.557014 23.6483C-0.00782064 10.2911 11.0221 -0.06685 23.2667 -0.000168136ZM23.2511 15.0843C20.6714 15.1811 18.0381 15.2569 15.4074 15.3942C14.5942 15.436 13.76 15.6661 13.4201 16.5252C13.1834 17.1227 13.0161 17.7843 12.9925 18.4249C12.9115 20.6869 12.8565 22.9541 12.8918 25.2173C12.9088 26.3391 13.1259 27.4584 13.2815 28.575C13.3651 29.1751 13.7456 29.5595 14.334 29.6863C14.8204 29.7922 15.3172 29.889 15.8114 29.9034C17.0745 29.94 18.3493 29.8249 19.5992 29.9557C23.323 30.3453 27.0375 30.0956 30.7547 29.9334C31.1221 29.9177 31.4921 29.8576 31.8543 29.787C32.8127 29.6 33.1736 29.2562 33.3161 28.2912C33.4429 27.4309 33.541 26.5627 33.5763 25.6946C33.6887 22.9096 33.7711 20.1207 33.3409 17.3515C33.1383 16.0492 32.4832 15.4465 31.143 15.3824C28.5333 15.2556 25.9222 15.1837 23.2524 15.0869L23.2511 15.0843Z" fill="black"/>
<path d="M21.2767 19.6006C21.4545 19.6647 21.669 19.7156 21.8599 19.8137C23.3256 20.5707 24.7926 21.3265 26.2439 22.1097C26.44 22.2156 26.6766 22.4744 26.674 22.6588C26.6714 22.8601 26.4544 23.1386 26.2556 23.2432C24.7416 24.0513 23.217 24.8384 21.6807 25.6019C21.0008 25.9393 20.6047 25.7039 20.5942 24.973C20.5746 23.4943 20.5746 22.0155 20.5942 20.5367C20.5995 20.1131 20.6125 19.628 21.278 19.6006H21.2767Z" fill="black"/>
</svg>
